<?xml version="1.0" encoding="iso-8859-1"?>
<!-- Uploaded to: SVG Repo, www.svgrepo.com, Generator: SVG Repo Mixer Tools -->
<!DOCTYPE svg PUBLIC "-//W3C//DTD SVG 1.1//EN" "http://www.w3.org/Graphics/SVG/1.1/DTD/svg11.dtd">
<svg fill="#000000" height="800px" width="800px" version="1.1" id="Capa_1" xmlns="http://www.w3.org/2000/svg" xmlns:xlink="http://www.w3.org/1999/xlink" 
	 viewBox="0 0 441.478 441.478" xml:space="preserve">
<g>
	<path d="M154.239,258.528c5.79,0,10.5-4.71,10.5-10.5c0-5.79-4.71-10.5-10.5-10.5s-10.5,4.71-10.5,10.5
		C143.739,253.818,148.449,258.528,154.239,258.528z"/>
	<path d="M134.239,238.528c5.79,0,10.5-4.71,10.5-10.5c0-5.79-4.71-10.5-10.5-10.5s-10.5,4.71-10.5,10.5
		C123.739,233.818,128.449,238.528,134.239,238.528z"/>
	<path d="M153.239,289.028c33.084,0,60-26.916,60-60c0-33.084-26.916-60-60-60s-60,26.916-60,60
		C93.239,262.112,120.155,289.028,153.239,289.028z M153.239,189.028c22.056,0,40,17.944,40,40c0,22.056-17.944,40-40,40
		s-40-17.944-40-40C113.239,206.973,131.183,189.028,153.239,189.028z"/>
	<path d="M228.239,229.028c0,33.084,26.916,60,60,60s60-26.916,60-60c0-33.084-26.916-60-60-60S228.239,195.944,228.239,229.028z
		 M328.239,229.028c0,22.056-17.944,40-40,40s-40-17.944-40-40c0-22.056,17.944-40,40-40S328.239,206.973,328.239,229.028z"/>
	<path d="M286.739,304.426c-15.269,0-28.217,10.118-32.497,24h-67.006c-4.28-13.882-17.228-24-32.497-24c-16.217,0-46,12.908-46,34
		s29.783,34,46,34c15.269,0,28.217-10.118,32.497-24h67.006c4.28,13.882,17.228,24,32.497,24c16.217,0,46-12.908,46-34
		S302.956,304.426,286.739,304.426z M154.739,352.426c-10.714,0-26-9.056-26-14c0-4.944,15.286-14,26-14c7.72,0,14,6.28,14,14
		C168.739,346.146,162.458,352.426,154.739,352.426z M286.739,352.426c-7.72,0-14-6.28-14-14c0-7.72,6.28-14,14-14
		c10.714,0,26,9.056,26,14C312.739,343.37,297.453,352.426,286.739,352.426z"/>
	<path d="M301.398,117.478h81.341c5.522,0,10-4.478,10-10c0-34.034-19.333-62.363-55.908-81.927C306.024,9.074,264.794,0,220.739,0
		s-85.285,9.074-116.092,25.551c-36.575,19.563-55.908,47.893-55.908,81.927c0,5.522,4.478,10,10,10h81.355
		c-55.264,29.287-91.355,87.23-91.355,152c0,79.764,54.58,147.014,128.352,166.382c0.418,0.138,0.846,0.251,1.286,0.333
		c13.556,3.446,27.748,5.284,42.361,5.284c14.257,0,28.11-1.755,41.366-5.041c0.381-0.072,0.757-0.16,1.121-0.274
		c74.36-18.964,129.513-86.503,129.513-166.685C392.739,204.584,356.683,146.732,301.398,117.478z M220.739,20
		c40.232,0,79.107,8.451,106.658,23.187c0.614,0.328,1.231,0.666,1.852,1.01c0.2,0.111,0.403,0.228,0.604,0.341
		c0.422,0.237,0.844,0.475,1.267,0.72c0.24,0.139,0.482,0.282,0.723,0.423c0.387,0.227,0.775,0.455,1.164,0.689
		c0.256,0.154,0.513,0.311,0.77,0.468c0.375,0.229,0.751,0.461,1.127,0.695c0.263,0.165,0.526,0.331,0.789,0.499
		c0.375,0.239,0.75,0.48,1.125,0.726c0.26,0.169,0.519,0.339,0.779,0.512c0.383,0.254,0.766,0.513,1.148,0.774
		c0.25,0.17,0.5,0.34,0.749,0.513c0.408,0.283,0.814,0.572,1.22,0.862c0.221,0.158,0.443,0.313,0.663,0.473
		c0.49,0.355,0.978,0.718,1.465,1.084c0.136,0.102,0.272,0.201,0.408,0.304c0.625,0.475,1.247,0.958,1.866,1.452
		c0.122,0.097,0.242,0.198,0.364,0.296c0.491,0.396,0.981,0.794,1.468,1.201c0.204,0.17,0.404,0.346,0.607,0.517
		c0.402,0.342,0.802,0.685,1.2,1.035c0.227,0.2,0.452,0.404,0.677,0.606c0.37,0.333,0.738,0.667,1.104,1.006
		c0.232,0.216,0.463,0.434,0.693,0.653c0.355,0.337,0.708,0.677,1.058,1.022c0.229,0.225,0.458,0.452,0.686,0.681
		c0.348,0.35,0.693,0.705,1.036,1.062c0.22,0.229,0.44,0.458,0.657,0.689c0.352,0.375,0.698,0.756,1.044,1.139
		c0.2,0.221,0.401,0.441,0.599,0.665c0.378,0.428,0.748,0.864,1.117,1.302c0.157,0.187,0.318,0.37,0.473,0.558
		c1.044,1.264,2.051,2.566,3.015,3.909c0.135,0.189,0.265,0.383,0.399,0.574c0.339,0.483,0.677,0.968,1.005,1.462
		c0.166,0.249,0.326,0.504,0.489,0.756c0.287,0.445,0.572,0.891,0.849,1.344c0.17,0.277,0.335,0.558,0.501,0.839
		c0.26,0.438,0.516,0.88,0.766,1.326c0.165,0.294,0.327,0.591,0.488,0.889c0.241,0.446,0.476,0.896,0.706,1.349
		c0.154,0.303,0.307,0.606,0.457,0.912c0.227,0.466,0.447,0.937,0.664,1.41c0.138,0.301,0.277,0.602,0.411,0.906
		c0.221,0.503,0.431,1.014,0.639,1.526c0.115,0.283,0.234,0.563,0.345,0.848c0.237,0.61,0.46,1.229,0.678,1.85
		c0.069,0.195,0.144,0.387,0.21,0.583c0.281,0.825,0.545,1.661,0.792,2.508c0.05,0.171,0.092,0.347,0.14,0.519
		c0.19,0.674,0.374,1.353,0.542,2.04c0.074,0.305,0.139,0.617,0.208,0.925c0.128,0.565,0.255,1.131,0.368,1.706
		c0.069,0.351,0.129,0.706,0.192,1.06c0.064,0.356,0.122,0.715,0.179,1.075H260.239c-5.523,0-10,4.478-10,10v17.131
		c-19.724,3.88-40.369,3.803-60-0.191v-16.939c0-5.522-4.477-10-10-10H69.537c0.058-0.359,0.116-0.719,0.179-1.075
		c0.063-0.354,0.123-0.709,0.192-1.06c0.113-0.574,0.239-1.141,0.368-1.706c0.07-0.308,0.134-0.62,0.209-0.925
		c0.168-0.688,0.352-1.366,0.541-2.04c0.048-0.172,0.09-0.348,0.14-0.519c0.247-0.847,0.511-1.682,0.791-2.507
		c0.068-0.2,0.144-0.394,0.214-0.592c0.217-0.619,0.439-1.236,0.675-1.843c0.111-0.286,0.23-0.565,0.345-0.848
		c0.208-0.512,0.418-1.024,0.638-1.526c0.133-0.305,0.273-0.605,0.411-0.906c0.217-0.473,0.436-0.944,0.664-1.41
		c0.15-0.306,0.303-0.609,0.457-0.912c0.231-0.453,0.466-0.903,0.706-1.349c0.161-0.298,0.323-0.595,0.488-0.889
		c0.25-0.446,0.506-0.888,0.766-1.326c0.166-0.281,0.331-0.562,0.501-0.839c0.277-0.453,0.562-0.899,0.849-1.344
		c0.163-0.252,0.323-0.507,0.489-0.756c0.328-0.494,0.666-0.979,1.005-1.462c0.134-0.19,0.264-0.385,0.399-0.574
		c0.964-1.343,1.971-2.646,3.015-3.909c0.156-0.188,0.316-0.371,0.473-0.558c0.369-0.438,0.739-0.873,1.117-1.302
		c0.198-0.224,0.399-0.443,0.599-0.665c0.345-0.383,0.692-0.764,1.044-1.139c0.217-0.231,0.437-0.46,0.657-0.689
		c0.343-0.357,0.688-0.712,1.036-1.062c0.228-0.229,0.456-0.456,0.686-0.681c0.35-0.344,0.703-0.685,1.058-1.022
		c0.231-0.219,0.461-0.437,0.693-0.653c0.365-0.339,0.733-0.673,1.102-1.005c0.226-0.204,0.452-0.408,0.68-0.609
		c0.396-0.349,0.796-0.691,1.196-1.032c0.203-0.173,0.405-0.349,0.609-0.52c0.486-0.407,0.976-0.806,1.467-1.201
		c0.122-0.098,0.242-0.199,0.364-0.296c0.619-0.493,1.241-0.977,1.866-1.452c0.135-0.103,0.272-0.202,0.408-0.304
		c0.487-0.366,0.975-0.729,1.465-1.084c0.22-0.16,0.442-0.316,0.663-0.473c0.406-0.29,0.813-0.579,1.22-0.862
		c0.25-0.173,0.5-0.342,0.749-0.513c0.383-0.261,0.765-0.52,1.148-0.774c0.26-0.172,0.519-0.342,0.779-0.512
		c0.375-0.245,0.75-0.487,1.125-0.726c0.263-0.167,0.526-0.334,0.789-0.499c0.376-0.235,0.751-0.466,1.127-0.695
		c0.257-0.157,0.513-0.314,0.77-0.468c0.389-0.233,0.776-0.462,1.164-0.689c0.241-0.142,0.482-0.285,0.723-0.423
		c0.424-0.245,0.846-0.483,1.267-0.72c0.201-0.113,0.403-0.229,0.604-0.341c0.62-0.344,1.238-0.682,1.852-1.01
		C141.631,28.451,180.506,20,220.739,20z M190.239,418.402v-6.925h60v7.117c-9.547,1.885-19.408,2.883-29.5,2.883
		C210.295,421.478,200.095,420.418,190.239,418.402z M270.239,413.195v-11.718c0-5.522-4.478-10-10-10h-80c-5.523,0-10,4.478-10,10
		v11.365c-59.063-20.866-101.5-77.248-101.5-143.365c0-65.009,41.13-122.238,101.5-143.419v6.315c0,4.563,3.089,8.547,7.507,9.685
		c13.973,3.597,28.438,5.42,42.993,5.42c14.16,0,28.269-1.736,41.931-5.16c4.449-1.115,7.569-5.113,7.569-9.7v-6.901
		c60.957,20.885,102.5,78.269,102.5,143.762C372.739,335.968,329.823,392.616,270.239,413.195z"/>
</g>
</svg>