<?xml version="1.0" encoding="iso-8859-1"?>
<!-- Uploaded to: SVG Repo, www.svgrepo.com, Generator: SVG Repo Mixer Tools -->
<!DOCTYPE svg PUBLIC "-//W3C//DTD SVG 1.1//EN" "http://www.w3.org/Graphics/SVG/1.1/DTD/svg11.dtd">
<svg fill="#000000" height="800px" width="800px" version="1.1" id="Capa_1" xmlns="http://www.w3.org/2000/svg" xmlns:xlink="http://www.w3.org/1999/xlink" 
	 viewBox="0 0 442 442" xml:space="preserve">
<g>
	<path d="M341,128.36h-10v-12.5c5.523,0,10-4.478,10-10c0-5.522-4.477-10-10-10v-22.5c0-5.522-4.477-10-10-10h-50
		c-5.523,0-10,4.477-10,10v22.5c-5.523,0-10,4.478-10,10c0,5.522,4.477,10,10,10v12.5h-10c-5.523,0-10,4.478-10,10v275
		c0,21.139,29.628,28.64,55,28.64c25.372,0,55-7.501,55-28.64v-275C351,132.838,346.523,128.36,341,128.36z M281,83.36h30v12.5h-30
		V83.36z M281,115.86h30v12.5h-30V115.86z M296,422c-22.544,0-34.177-6.204-35-8.64v-265h70l0.007,264.968
		C330.177,415.796,318.544,422,296,422z"/>
	<path d="M191,218.36h-35v-94.5h20c5.523,0,10-4.478,10-10c0-5.522-4.477-10-10-10h-20v-5.965h15c5.523,0,10-4.478,10-10
		s-4.477-10-10-10h-15v-5.965h10c5.523,0,10-4.478,10-10c0-5.522-4.477-10-10-10h-10v-5.966h5c5.523,0,10-4.478,10-10
		c0-5.522-4.477-10-10-10h-5V20c5.523,0,10-4.477,10-10s-4.477-10-10-10h-20c-5.523,0-10,4.477-10,10s4.477,10,10,10v5.965h-5
		c-5.523,0-10,4.478-10,10c0,5.522,4.477,10,10,10h5v5.966h-10c-5.523,0-10,4.478-10,10c0,5.522,4.477,10,10,10h10v5.965h-15
		c-5.523,0-10,4.478-10,10s4.477,10,10,10h15v5.965h-20c-5.523,0-10,4.478-10,10c0,5.522,4.477,10,10,10h20v94.5h-35
		c-5.523,0-10,4.478-10,10v185c0,21.139,29.628,28.64,55,28.64c25.372,0,55-7.501,55-28.64v-185
		C201,222.838,196.523,218.36,191,218.36z M146,422c-22.544,0-34.177-6.204-35-8.64v-175h70l0.007,174.968
		C180.177,415.796,168.544,422,146,422z"/>
</g>
</svg>