<?xml version="1.0" encoding="iso-8859-1"?>
<!-- Uploaded to: SVG Repo, www.svgrepo.com, Generator: SVG Repo Mixer Tools -->
<svg fill="#000000" height="800px" width="800px" version="1.1" id="Layer_1" xmlns="http://www.w3.org/2000/svg" xmlns:xlink="http://www.w3.org/1999/xlink" 
	 viewBox="0 0 503.467 503.467" xml:space="preserve">
<g transform="translate(1 1)">
	<g>
		<g>
			<path d="M67.267,75.8h-25.6v38.638C16.966,123.152-1,146.587-1,174.787V203.8v204.8v29.867c0,34.987,28.16,64,64,64h110.933
				c34.987,0,64-29.013,63.147-64v-263.68c0-27.339-17.195-51.031-41.813-60.082V75.8h-25.6V50.2h68.267V-1H67.267V75.8z
				 M16.067,357.4H101.4c5.12,0,8.533-3.413,8.533-8.533s-3.413-8.533-8.533-8.533H16.067v-25.6H101.4
				c5.12,0,8.533-3.413,8.533-8.533c0-5.12-3.413-8.533-8.533-8.533H16.067v-25.6h42.667c5.12,0,8.533-3.413,8.533-8.533
				c0-5.12-3.413-8.533-8.533-8.533H16.067v-34.133H152.6v170.667H16.067V357.4z M220.013,174.787v262.827
				c0,25.6-20.48,46.933-46.933,46.933H63c-25.6,0-46.933-20.48-46.933-46.933V408.6h153.6V203.8h-153.6v-29.867
				C16.067,148.333,36.547,127,63,127v0.853h110.08C198.68,127.853,220.013,148.333,220.013,174.787z M178.2,92.867v17.067H58.733
				V92.867h8.533h102.4H178.2z M84.333,16.067h136.533v17.067H152.6V75.8H84.333V16.067z"/>
			<path d="M481.987,16.067H335.213c-11.093,0-20.48,9.387-20.48,20.48V55.32c0,11.093,9.387,20.48,20.48,20.48h5.12
				c18.773,0,34.133,15.36,34.133,34.133v24.747l-5.023,103.253h-0.097l-3.413,68.267h0.189l-7.016,144.213
				c-0.853,13.653,4.267,26.453,13.653,36.693c9.387,10.24,22.187,15.36,35.84,15.36c13.653,0,26.453-5.12,35.84-15.36
				s14.507-23.04,13.653-36.693l-15.36-315.733v-24.747c0-18.773,15.36-34.133,34.133-34.133h5.12c11.093,0,20.48-8.533,20.48-20.48
				V36.547C502.467,25.453,493.08,16.067,481.987,16.067z M391.533,152.6h34.133l3.89,85.333h-42.399L391.533,152.6z M386.413,255
				h43.921l1.556,34.133h-47.184L386.413,255z M430.787,476.013c-5.973,6.827-14.507,10.24-23.04,10.24s-17.067-3.413-23.04-10.24
				s-9.387-15.36-8.533-23.893l7.483-145.92h49.012l6.652,145.92C440.173,461.507,436.76,469.187,430.787,476.013z M391.533,134.68
				v-16.213h34.133v16.213H391.533z M426.397,101.4h-35.593c-1.65-9.726-6.06-18.541-12.399-25.6h60.39
				C432.456,82.859,428.047,91.674,426.397,101.4z M485.4,55.32c0,1.707-1.707,3.413-3.413,3.413H335.213
				c-1.707,0-3.413-1.707-3.413-3.413V36.547c0-1.707,1.707-3.413,3.413-3.413h146.773c1.707,0,3.413,1.707,3.413,3.413V55.32z"/>
		</g>
	</g>
</g>
</svg>